<?xml version="1.0" encoding="utf-8"?>
<svg contentScriptType="text/ecmascript" xmlns:xlink="http://www.w3.org/1999/xlink" zoomAndPan="magnify" contentStyleType="text/css" viewBox="7.333333333333314 12.666666666666671 656.3333333333335 227.0000000000001" xmlns:cacoo="http://cacoo.com/" preserveAspectRatio="xMidYMin meet" xmlns="http://www.w3.org/2000/svg" version="1.1"><defs><radialGradient xmlns:xlink="http://www.w3.org/1999/xlink" xlink:type="simple" r="75%" xlink:actuate="onLoad" cx="50%" id="id0" cy="50%" xlink:show="other"><stop stop-opacity="1.0" stop-color="#ea6b66" offset="0%"/><stop stop-opacity="1.0" stop-color="#dc0800" offset="100%"/></radialGradient><radialGradient xmlns:xlink="http://www.w3.org/1999/xlink" xlink:type="simple" r="75%" xlink:actuate="onLoad" cx="50%" id="id2" cy="50%" xlink:show="other"><stop stop-opacity="1.0" stop-color="#ea6b66" offset="0%"/><stop stop-opacity="1.0" stop-color="#dc0800" offset="100%"/></radialGradient><radialGradient xmlns:xlink="http://www.w3.org/1999/xlink" xlink:type="simple" r="75%" xlink:actuate="onLoad" cx="50%" id="id4" cy="50%" xlink:show="other"><stop stop-opacity="1.0" stop-color="#ea6b66" offset="0%"/><stop stop-opacity="1.0" stop-color="#dc0800" offset="100%"/></radialGradient><radialGradient xmlns:xlink="http://www.w3.org/1999/xlink" xlink:type="simple" r="75%" xlink:actuate="onLoad" cx="50%" id="id8" cy="50%" xlink:show="other"><stop stop-opacity="1.0" stop-color="#7ea6e0" offset="0%"/><stop stop-opacity="1.0" stop-color="#286bcc" offset="100%"/></radialGradient><radialGradient xmlns:xlink="http://www.w3.org/1999/xlink" xlink:type="simple" r="75%" xlink:actuate="onLoad" cx="50%" id="id10" cy="50%" xlink:show="other"><stop stop-opacity="1.0" stop-color="#ffd966" offset="0%"/><stop stop-opacity="1.0" stop-color="#ffbf00" offset="100%"/></radialGradient></defs><g><g transform="translate(415.6666666666667 27.66666666666667)"><path fill="url(#id0)" d="M83.00000000000006 127.00000000000009 Q83.00000000000006 132.00000000000009 78.00000000000006 132.00000000000009 L5.0 132.00000000000009 Q0.0 132.00000000000009 0.0 127.00000000000009 L0.0 5.0 Q0.0 0.0 5.0 0.0 L78.00000000000006 0.0 Q83.00000000000006 0.0 83.00000000000006 5.0 L83.00000000000006 127.00000000000009 L83.00000000000006 127.00000000000009z" stroke-width="1.0" stroke-linejoin="round" stroke="#000000"/><g transform="translate(1.0 1.0)"><defs><clipPath id="id1"><path d="M0 0 L81.0 0 L81.0 130.0 L0 130.0z"/></clipPath></defs><text font-size="12" clip-path="url(#id1)" text-decoration="none" fill="#000000" font-family="Arial,Arial" font-style="normal" font-weight="normal"><tspan x="11.0" xml:space="preserve" y="62.0" textLength="62.0">Nginx/PHP </tspan><tspan x="14.0" xml:space="preserve" y="76.0" textLength="52.0">with Neos</tspan></text></g></g><g transform="translate(580.6666666666667 27.66666666666667)"><path fill="url(#id2)" d="M67.99999999999993 52.499999999999936 Q67.99999999999993 57.499999999999936 62.99999999999993 57.499999999999936 L5.0 57.499999999999936 Q0.0 57.499999999999936 0.0 52.499999999999936 L0.0 5.0 Q0.0 0.0 5.0 0.0 L62.99999999999993 0.0 Q67.99999999999993 0.0 67.99999999999993 5.0 L67.99999999999993 52.499999999999936 L67.99999999999993 52.499999999999936z" stroke-width="1.0" stroke-linejoin="round" stroke="#000000"/><g transform="translate(1.0 1.0)"><defs><clipPath id="id3"><path d="M0 0 L66.0 0 L66.0 55.5 L0 55.5z"/></clipPath></defs><text font-size="12" clip-path="url(#id3)" text-decoration="none" fill="#000000" font-family="Arial,Arial" font-style="normal" font-weight="normal"><tspan x="18.0" xml:space="preserve" y="31.75" textLength="30.0">Redis</tspan></text></g></g><g transform="translate(580.6666666666667 93.66666666666667)"><path fill="url(#id4)" d="M67.99999999999999 60.99999999999994 Q67.99999999999999 65.99999999999994 62.999999999999986 65.99999999999994 L5.0 65.99999999999994 Q0.0 65.99999999999994 0.0 60.99999999999994 L0.0 5.0 Q0.0 0.0 5.0 0.0 L62.999999999999986 0.0 Q67.99999999999999 0.0 67.99999999999999 5.0 L67.99999999999999 60.99999999999994 L67.99999999999999 60.99999999999994z" stroke-width="1.0" stroke-linejoin="round" stroke="#000000"/><g transform="translate(1.0 1.0)"><defs><clipPath id="id5"><path d="M0 0 L66.0 0 L66.0 64.00000000000001 L0 64.00000000000001z"/></clipPath></defs><text font-size="12" clip-path="url(#id5)" text-decoration="none" fill="#000000" font-family="Arial,Arial" font-style="normal" font-weight="normal"><tspan x="7.0" xml:space="preserve" y="36.00000000000001" textLength="51.0">Mysql DB</tspan></text></g></g><g transform="translate(498.6666666666667 29.16666666666667)"><path fill="#ffffff" fill-opacity="1.0" d="M81.99999999999994 18.0 L59.99999999999994 36.0 L59.99999999999994 26.0 L0.0 26.0 L0.0 10.0 L59.99999999999994 10.0 L59.99999999999994 0.0 L81.99999999999994 18.0z" stroke-width="1.0" stroke-linejoin="round" stroke="#000000"/><g transform="translate(0.0 10.0)"><defs><clipPath id="id6"><path d="M0 0 L72.00000000000006 0 L72.00000000000006 16.0 L0 16.0z"/></clipPath></defs><text font-size="10" clip-path="url(#id6)" text-decoration="none" fill="#000000" font-family="Arial,Arial" font-style="normal" font-weight="normal"><tspan x="13.0" xml:space="preserve" y="11.5" textLength="45.0">Get cache</tspan></text></g></g><g transform="translate(498.6666666666667 120.0)"><path fill="#ffffff" fill-opacity="1.0" d="M82.0 18.0 L60.0 36.0 L60.0 26.0 L0.0 26.0 L0.0 10.0 L60.0 10.0 L60.0 0.0 L82.0 18.0z" stroke-width="1.0" stroke-linejoin="round" stroke="#000000"/><g transform="translate(0.0 10.0)"><defs><clipPath id="id7"><path d="M0 0 L72.00000000000006 0 L72.00000000000006 16.0 L0 16.0z"/></clipPath></defs><text font-size="10" clip-path="url(#id7)" text-decoration="none" fill="#000000" font-family="Arial,Arial" font-style="normal" font-weight="normal"><tspan x="10.0" xml:space="preserve" y="11.5" textLength="51.0">Get content</tspan></text></g></g><g transform="translate(25.333333333333314 27.66666666666667)"><path fill="url(#id8)" d="M85.0000000000001 127.0 Q85.0000000000001 132.0 80.0000000000001 132.0 L5.0 132.0 Q0.0 132.0 0.0 127.0 L0.0 5.0 Q0.0 0.0 5.0 0.0 L80.0000000000001 0.0 Q85.0000000000001 0.0 85.0000000000001 5.0 L85.0000000000001 127.0 L85.0000000000001 127.0z" stroke-width="1.0" stroke-linejoin="round" stroke="#000000"/><g transform="translate(1.0 1.0)"><defs><clipPath id="id9"><path d="M0 0 L83.0 0 L83.0 130.0 L0 130.0z"/></clipPath></defs><text font-size="12" clip-path="url(#id9)" text-decoration="none" fill="#000000" font-family="Arial,Arial" font-style="normal" font-weight="normal"><tspan x="7.0" xml:space="preserve" y="55.0" textLength="72.0">Browser with </tspan><tspan x="7.0" xml:space="preserve" y="69.0" textLength="72.0">React/Redux </tspan><tspan x="31.0" xml:space="preserve" y="83.0" textLength="20.0">app</tspan></text></g></g><g transform="translate(198.66666666666669 27.66666666666667)"><path fill="url(#id10)" d="M95.00000000000016 127.00000000000017 Q95.00000000000016 132.00000000000017 90.00000000000016 132.00000000000017 L5.0 132.00000000000017 Q0.0 132.00000000000017 0.0 127.00000000000017 L0.0 5.0 Q0.0 0.0 5.0 0.0 L90.00000000000016 0.0 Q95.00000000000016 0.0 95.00000000000016 5.0 L95.00000000000016 127.00000000000017 L95.00000000000016 127.00000000000017z" stroke-width="1.0" stroke-linejoin="round" stroke="#000000"/><g transform="translate(1.0 1.0)"><defs><clipPath id="id11"><path d="M0 0 L93.0 0 L93.0 130.0 L0 130.0z"/></clipPath></defs><text font-size="12" clip-path="url(#id11)" text-decoration="none" fill="#000000" font-family="Arial,Arial" font-style="normal" font-weight="normal"><tspan x="20.0" xml:space="preserve" y="48.0" textLength="56.0">Node with </tspan><tspan x="12.0" xml:space="preserve" y="62.0" textLength="68.0">Express pre-</tspan><tspan x="4.0" xml:space="preserve" y="76.0" textLength="88.0">rendering React </tspan><tspan x="35.0" xml:space="preserve" y="90.0" textLength="22.0">html</tspan></text></g></g><g transform="translate(293.6666666666667 115.0)"><path fill="#ffffff" fill-opacity="1.0" d="M121.99999999999991 22.99999999999999 L99.99999999999991 45.99999999999998 L99.99999999999991 35.99999999999998 L0.0 35.99999999999998 L0.0 10.0 L99.99999999999991 10.0 L99.99999999999991 0.0 L121.99999999999991 22.99999999999999z" stroke-width="1.0" stroke-linejoin="round" stroke="#000000"/><g transform="translate(0.0 10.0)"><defs><clipPath id="id12"><path d="M0 0 L112.0 0 L112.0 26.0 L0 26.0z"/></clipPath></defs><text font-size="10" clip-path="url(#id12)" text-decoration="none" fill="#000000" font-family="Arial,Arial" font-style="normal" font-weight="normal"><tspan x="5.0" xml:space="preserve" y="11.0" textLength="103.0">Fetch content for initial </tspan><tspan x="14.0" xml:space="preserve" y="22.0" textLength="83.0">rendering from API</tspan></text></g></g><g transform="translate(110.33333333333331 27.66666666666667)"><path fill-opacity="1.0" fill="#ffffff" stroke-linejoin="round" stroke-dasharray="3.0 3.0" d="M305.3333333333332 19.5 L283.3333333333332 39.0 L283.3333333333332 29.0 L0.0 29.0 L0.0 10.0 L283.3333333333332 10.0 L283.3333333333332 0.0 L305.3333333333332 19.5z" stroke="#000000" stroke-width="1.0"/><g transform="translate(0.0 10.0)"><defs><clipPath id="id13"><path d="M0 0 L295.33333333333337 0 L295.33333333333337 19.0 L0 19.0z"/></clipPath></defs><text font-size="10" clip-path="url(#id13)" text-decoration="none" fill="#000000" font-family="Arial,Arial" font-style="normal" font-weight="normal"><tspan x="14.0" xml:space="preserve" y="13.0" textLength="267.0">Vote and fetch async content from API (proxy through Node)</tspan></text></g></g><g transform="translate(110.33333333333331 115.0)"><path fill="#ffffff" fill-opacity="1.0" d="M88.3333333333334 23.000000000000007 L66.3333333333334 46.000000000000014 L66.3333333333334 36.000000000000014 L0.0 36.000000000000014 L0.0 10.0 L66.3333333333334 10.0 L66.3333333333334 0.0 L88.3333333333334 23.000000000000007z" stroke-width="1.0" stroke-linejoin="round" stroke="#000000"/><g transform="translate(0.0 10.0)"><defs><clipPath id="id14"><path d="M0 0 L78.33333333333337 0 L78.33333333333337 26.0 L0 26.0z"/></clipPath></defs><text font-size="10" clip-path="url(#id14)" text-decoration="none" fill="#000000" font-family="Arial,Arial" font-style="normal" font-weight="normal"><tspan x="6.0" xml:space="preserve" y="11.0" textLength="68.0">Get pre-render </tspan><tspan x="8.0" xml:space="preserve" y="22.0" textLength="62.0">html for React</tspan></text></g></g><g transform="translate(57.833333333333314 141.1166666666667) rotate(90.0 10.0 42.5)"><path fill="none" d="M0.0 0.0 L0.0 0.0 Q10.0 0.0 10.0 10.0 L10.0 32.499999999999986 Q10.0 42.499999999999986 20.0 42.499999999999986" stroke-width="1.0" stroke-linejoin="round" stroke="#000000"/><path fill="none" d="M20.0 42.499999999999986 Q10.0 42.499999999999986 10.0 52.499999999999986 L10.0 74.99999999999997 Q10.0 84.99999999999997 0.0 84.99999999999997 L0.0 84.99999999999997" stroke-width="1.0" stroke-linejoin="round" stroke="#000000"/></g><g transform="translate(413.6666666666667 -41.38333333333328) rotate(90.0 10.0 225.00000000000003)"><path fill="none" d="M0.0 0.0 L0.0 0.0 Q10.0 0.0 10.0 10.0 L10.0 215.00000000000023 Q10.0 225.00000000000023 20.0 225.00000000000023" stroke-width="1.0" stroke-linejoin="round" stroke="#000000"/><path fill="none" d="M20.0 225.00000000000023 Q10.0 225.00000000000023 10.0 235.00000000000023 L10.0 440.00000000000045 Q10.0 450.00000000000045 0.0 450.00000000000045 L0.0 450.00000000000045" stroke-width="1.0" stroke-linejoin="round" stroke="#000000"/></g><g transform="translate(22.333333333333314 198.6666666666668)"><defs><clipPath id="id15"><path d="M0 0 L91.0 0 L91.0 26.0 L0 26.0z"/></clipPath></defs><text font-size="16" clip-path="url(#id15)" text-decoration="none" fill="#000000" font-family="Arial,Arial" font-style="normal" font-weight="bold"><tspan x="2.0" xml:space="preserve" y="16.0" textLength="81.0">Client-side</tspan></text></g><g transform="translate(372.9166666666667 198.66666666666686)"><defs><clipPath id="id16"><path d="M0 0 L101.5 0 L101.5 25.99999999999983 L0 25.99999999999983z"/></clipPath></defs><text font-size="16" clip-path="url(#id16)" text-decoration="none" fill="#000000" font-family="Arial,Arial" font-style="normal" font-weight="bold"><tspan x="2.0" xml:space="preserve" y="16.0" textLength="87.0">Server-side</tspan></text></g></g></svg>